<svg width="41" height="41" viewBox="0 0 41 41" fill="none" xmlns="http://www.w3.org/2000/svg">
<path d="M29.4 14.3136C29.4 16.1735 27.8922 17.6812 26.0324 17.6812C24.1725 17.6812 22.6648 16.1735 22.6648 14.3136C22.6648 12.4538 24.1725 10.946 26.0324 10.946C27.8922 10.946 29.4 12.4538 29.4 14.3136Z" stroke="#898989" stroke-width="2.02054"/>
<path d="M19.113 23.4167L19.8628 22.9168C21.6898 21.6988 23.8365 21.0488 26.0324 21.0488C28.2282 21.0488 30.3749 21.6988 32.2019 22.9168L32.9517 23.4167C33.8885 24.0412 34.4513 25.0927 34.4513 26.2187V27.8962C34.4513 28.7641 33.7477 29.4677 32.8797 29.4677H26.0324H19.185C18.317 29.4677 17.6134 28.7641 17.6134 27.8962V26.2187C17.6134 25.0927 18.1762 24.0412 19.113 23.4167Z" stroke="#898989" stroke-width="2.02054" stroke-linecap="round" stroke-linejoin="round"/>
<path d="M17.9811 14.3136C17.9811 16.1735 16.4734 17.6812 14.6135 17.6812C12.7537 17.6812 11.246 16.1735 11.246 14.3136C11.246 12.4538 12.7537 10.946 14.6135 10.946C16.4734 10.946 17.9811 12.4538 17.9811 14.3136Z" stroke="#898989" stroke-width="2.02054"/>
<path d="M14.6135 21.0488C12.4177 21.0488 10.271 21.6988 8.44398 22.9168L7.69419 23.4167C6.75734 24.0412 6.19461 25.0927 6.19461 26.2187V27.8962C6.19461 28.7641 6.89821 29.4677 7.76614 29.4677H13.8271" stroke="#898989" stroke-width="2.02054" stroke-linecap="round" stroke-linejoin="round"/>
</svg>
