<svg width="23" height="21" viewBox="0 0 23 21" fill="none" xmlns="http://www.w3.org/2000/svg">
<path d="M1.17859 9.98612V17.4946C1.17859 18.4245 1.93244 19.1784 2.86237 19.1784H6.22994C6.79611 19.2071 7.27089 18.7557 7.27089 18.1888V13.2814C7.27089 12.3557 8.01812 11.6037 8.94378 11.5977L13.7313 11.5667C14.6655 11.5607 15.426 12.3163 15.426 13.2505V18.2717C15.426 18.7724 15.8319 19.1784 16.3326 19.1784H19.7002C20.6301 19.1784 21.384 18.4245 21.384 17.4946V9.98612C21.384 9.49083 21.1659 9.02066 20.7878 8.70074L12.3689 1.57704C11.7411 1.04583 10.8215 1.04583 10.1937 1.57704L1.77475 8.70074C1.39665 9.02066 1.17859 9.49083 1.17859 9.98612Z" fill="#E0E0E0" stroke="#E0E0E0" stroke-width="2.3573" stroke-linecap="round" stroke-linejoin="round"/>
</svg>
