<svg width="132" height="132" viewBox="0 0 132 132" fill="none" xmlns="http://www.w3.org/2000/svg">
<path d="M72.7384 45.0547L66.6692 50.9354L60.6001 45.0547C54.2361 38.8884 44.0272 39.2289 38.0882 45.8055C32.3253 52.1871 31.5319 61.7456 36.7503 68.5796C37.3916 69.4194 38.0221 70.2237 38.6222 70.9599C42.4205 75.6194 50.7077 83.7568 54.86 88.1237C57.9277 91.35 60.6852 94.0408 62.7626 96.0007C64.9564 98.0704 68.3428 98.0252 70.5408 95.9599C74.3714 92.3606 80.2454 86.7541 84.3832 82.4024C88.5354 78.0355 90.918 75.6194 94.7163 70.9599C95.3164 70.2237 95.9469 69.4194 96.5882 68.5796C101.807 61.7456 101.013 52.1871 95.2503 45.8055C89.3113 39.2289 79.1024 38.8884 72.7384 45.0547Z" stroke="#1ED760" stroke-width="8.5" stroke-linecap="round" stroke-linejoin="round"/>
</svg>
